# Blender v2.78 (sub 0) OBJ File: 'base_1.blend'
# www.blender.org
mtllib base_1.mtl
o Metal_Gate_Cube.003
v 0.700000 -1.000000 0.976235
v -0.700000 -1.000000 0.976235
v 0.699999 0.333333 1.000000
v -0.700001 0.333333 1.000000
v -0.700000 -0.809524 1.000000
v -0.700000 -0.619048 0.976235
v -0.700000 -0.428571 1.000000
v -0.700000 -0.238095 0.976235
v -0.700000 -0.047619 1.000000
v -0.700000 0.142857 0.976235
v 0.700000 -0.809524 1.000000
v 0.700000 -0.619048 0.976235
v 0.700000 -0.428571 1.000000
v 0.700000 -0.238095 0.976235
v 0.700000 -0.047619 1.000000
v 0.700000 0.142857 0.976235
vn -0.0000 -0.1238 0.9923
vn -0.0000 0.1238 0.9923
usemtl Material
s off
f 10//1 16//1 3//1 4//1
f 2//1 1//1 11//1 5//1
f 5//2 11//2 12//2 6//2
f 6//1 12//1 13//1 7//1
f 7//2 13//2 14//2 8//2
f 8//1 14//1 15//1 9//1
f 9//2 15//2 16//2 10//2
o Secondary_Cube.002
v 1.000000 -1.000000 1.000000
v -1.000000 -1.000000 1.000000
v 1.000000 0.333333 1.000000
v -1.000000 0.333333 1.000000
v 0.700000 -1.000000 1.000000
v -0.700000 -1.000000 1.000000
v 0.699999 0.333333 1.000000
v -0.700001 0.333333 1.000000
v -0.700000 -1.000000 1.050524
v -1.000000 -1.000000 1.050524
v -1.000000 0.333333 1.050524
v -0.700001 0.333333 1.050524
v 1.000000 -1.000000 1.050524
v 1.000000 0.333333 1.050524
v 0.700000 -1.000000 1.050524
v 0.699999 0.333333 1.050524
vn 0.0000 0.0000 -1.0000
vn -0.0000 -0.0000 1.0000
vn 0.0000 -1.0000 0.0000
vn -1.0000 -0.0000 -0.0000
vn 0.0000 1.0000 0.0000
vn 1.0000 0.0000 0.0000
usemtl Material
s off
f 21//3 23//3 19//3 17//3
f 18//3 20//3 24//3 22//3
f 31//4 29//4 30//4 32//4
f 26//4 25//4 28//4 27//4
f 18//5 22//5 25//5 26//5
f 23//6 21//6 31//6 32//6
f 19//7 23//7 32//7 30//7
f 17//8 19//8 30//8 29//8
f 20//6 18//6 26//6 27//6
f 22//8 24//8 28//8 25//8
f 21//5 17//5 29//5 31//5
f 24//7 20//7 27//7 28//7
o Primary_Cube.001
v 0.999999 1.000000 1.000001
v -1.000000 1.000000 1.000000
v 1.000000 0.333333 1.000000
v -1.000000 0.333333 1.000000
v 0.856256 1.000000 1.000000
v -0.856257 1.000000 1.000000
v 0.856257 0.333333 1.000000
v -0.856257 0.333333 1.000000
v 0.999999 0.666667 1.000000
v -1.000000 0.666667 1.000000
v 0.856256 0.666667 1.000000
v -0.856257 0.666667 1.000000
v 0.856256 0.333333 1.761620
v -0.856257 0.333333 1.761620
v 0.856256 0.420586 1.761620
v -0.856257 0.420586 1.761620
vn -0.0000 0.0000 1.0000
vn -1.0000 -0.0000 -0.0000
vn 0.0000 -1.0000 0.0000
vn -0.0000 0.9516 0.3075
vn 1.0000 0.0000 0.0000
usemtl Material
s off
f 44//9 38//9 34//9 42//9
f 41//9 33//9 37//9 43//9
f 43//9 37//9 38//9 44//9
f 44//10 40//10 46//10 48//10
f 35//9 41//9 43//9 39//9
f 40//9 44//9 42//9 36//9
f 45//9 47//9 48//9 46//9
f 40//11 39//11 45//11 46//11
f 43//12 44//12 48//12 47//12
f 39//13 43//13 47//13 45//13
o Cube
v 1.000000 -1.000000 -1.000000
v 1.000000 -1.000000 1.000000
v -1.000000 -1.000000 1.000000
v -1.000000 -1.000000 -1.000000
v 1.000000 1.000000 -0.999999
v 0.999999 1.000000 1.000001
v -1.000000 1.000000 1.000000
v -1.000000 1.000000 -1.000000
v 1.000000 -0.333333 -1.000000
v 1.000000 0.333333 -1.000000
v 1.000000 -0.333333 1.000000
v 1.000000 0.333333 1.000000
v -1.000000 -0.333333 1.000000
v -1.000000 0.333333 1.000000
v -1.000000 -0.333333 -1.000000
v -1.000000 0.333333 -1.000000
vn 0.0000 -1.0000 0.0000
vn 0.0000 1.0000 0.0000
vn 1.0000 -0.0000 0.0000
vn -1.0000 -0.0000 -0.0000
vn 0.0000 0.0000 -1.0000
usemtl Material
s off
f 49//14 50//14 51//14 52//14
f 53//15 56//15 55//15 54//15
f 58//16 53//16 54//16 60//16
f 62//17 55//17 56//17 64//17
f 53//18 58//18 64//18 56//18
f 52//17 51//17 62//17 64//17
f 52//18 64//18 58//18 49//18
f 50//16 49//16 58//16 60//16
l 49 57
l 57 58
l 50 59
l 59 60
l 51 61
l 61 62
l 52 63
l 63 64
